# xmcd CD database file
#
# Track frame offsets:
#	150
#	12697
#	25389
#	35770
#	48546
#	60495
#	73992
#	87237
#	97619
#	109741
#	120333
#	132377
#
# Disc length: 1940 seconds
#
# Revision: 0
# Processed by: cddbd v1.5.2PL0 Copyright (c) Steve Scherf et al.
# Submitted via: CDex 2.14
#
DISCID=a307920c
DTITLE=Jo Stafford - Do I Hear A Waltz?
DYEAR=1965
DGENRE=Jazz
TTITLE0=Do I Hear A Waltz?
TTITLE1=Down In The Valley
TTITLE2=Three, Four, Open The Down
TTITLE3=The King Of Paris
TTITLE4=Beautiful Ohio
TTITLE5=Together
TTITLE6=True Love
TTITLE7=I See Your Face Before Me
TTITLE8=Fascination
TTITLE9=When I'm Not Near The Boy I Love
TTITLE10=Far Away Places
TTITLE11=Afterthoughts
EXTD=YEAR: 1965
EXTT0=
EXTT1=
EXTT2=
EXTT3=
EXTT4=
EXTT5=
EXTT6=
EXTT7=
EXTT8=
EXTT9=
EXTT10=
EXTT11=
PLAYORDER=
